0
SECTION
2
HEADER
9
$INSUNITS
70
4
9
$ACADVER
1
AC1014
9
$HANDSEED
5
FFFF
0
ENDSEC
0
SECTION
2
TABLES
0
TABLE
2
VPORT
5
8
100
AcDbSymbolTable
0
ENDTAB
0
TABLE
2
LTYPE
5
5
100
AcDbSymbolTable
0
LTYPE
5
14
100
AcDbSymbolTableRecord
100
AcDbLinetypeTableRecord
2
BYBLOCK
70
0
0
LTYPE
5
15
100
AcDbSymbolTableRecord
100
AcDbLinetypeTableRecord
2
BYLAYER
70
0
0
ENDTAB
0
TABLE
2
LAYER
5
2
100
AcDbSymbolTable
70
2
0
LAYER
5
50
100
AcDbSymbolTableRecord
100
AcDbLayerTableRecord
2
0
70
0
6
CONTINUOUS
0
ENDTAB
0
TABLE
2
STYLE
5
3
100
AcDbSymbolTable
70
1
0
STYLE
5
11
100
AcDbSymbolTableRecord
100
AcDbTextStyleTableRecord
2
STANDARD
70
0
0
ENDTAB
0
TABLE
2
VIEW
5
6
100
AcDbSymbolTable
70
0
0
ENDTAB
0
TABLE
2
UCS
5
7
100
AcDbSymbolTable
70
0
0
ENDTAB
0
TABLE
2
APPID
5
9
100
AcDbSymbolTable
70
2
0
APPID
5
12
100
AcDbSymbolTableRecord
100
AcDbRegAppTableRecord
2
ACAD
70
0
0
ENDTAB
0
TABLE
2
DIMSTYLE
5
A
100
AcDbSymbolTable
70
1
0
ENDTAB
0
TABLE
2
BLOCK_RECORD
5
1
100
AcDbSymbolTable
70
1
0
BLOCK_RECORD
5
1F
100
AcDbSymbolTableRecord
100
AcDbBlockTableRecord
2
*MODEL_SPACE
0
BLOCK_RECORD
5
1B
100
AcDbSymbolTableRecord
100
AcDbBlockTableRecord
2
*PAPER_SPACE
0
ENDTAB
0
ENDSEC
0
SECTION
2
BLOCKS
0
BLOCK
5
20
100
AcDbEntity
100
AcDbBlockBegin
2
*MODEL_SPACE
0
ENDBLK
5
21
100
AcDbEntity
100
AcDbBlockEnd
0
BLOCK
5
1C
100
AcDbEntity
100
AcDbBlockBegin
2
*PAPER_SPACE
0
ENDBLK
5
1D
100
AcDbEntity
100
AcDbBlockEnd
0
ENDSEC
0
SECTION
2
ENTITIES
0
LINE
5
100
100
AcDbEntity
8
0
100
AcDbLine
10
-205.76620700872141
20
-198.46757668916337
30
0
11
-109.39747608824051
21
-136.18946880487098
31
0
0
LINE
5
101
100
AcDbEntity
8
0
100
AcDbLine
10
-109.39747608824051
20
-136.18946880487098
30
0
11
-105.50000157207251
21
-138.50000206381083
31
0
0
LINE
5
102
100
AcDbEntity
8
0
100
AcDbLine
10
-105.50000157207251
20
-138.50000206381083
30
0
11
-52.000000774860382
21
-103.0000015348196
31
0
0
LINE
5
103
100
AcDbEntity
8
0
100
AcDbLine
10
-52.000000774860382
20
-103.0000015348196
30
0
11
-39.872285342006535
21
-91.258947373154697
31
0
0
LINE
5
104
100
AcDbEntity
8
0
100
AcDbLine
10
-39.872285342006535
20
-91.258947373154697
30
0
11
-29.000000432133675
21
-71.000001057982445
31
0
0
LINE
5
105
100
AcDbEntity
8
0
100
AcDbLine
10
-29.000000432133675
20
-71.000001057982445
30
0
11
-23.000000342726707
21
-52.000000774860382
31
0
0
LINE
5
106
100
AcDbEntity
8
0
100
AcDbLine
10
-23.000000342726707
20
-52.000000774860382
30
0
11
-23.000000342726707
21
-29.000000432133675
31
0
0
LINE
5
107
100
AcDbEntity
8
0
100
AcDbLine
10
-23.000000342726707
20
-29.000000432133675
30
0
11
-17.444822496654147
21
-18.648721865783607
31
0
0
LINE
5
108
100
AcDbEntity
8
0
100
AcDbLine
10
-17.444822496654147
20
-18.648721865783607
30
0
11
-8.4565034236758851
21
-4.8178453779386654
31
0
0
LINE
5
109
100
AcDbEntity
8
0
100
AcDbLine
10
-8.4565034236758851
20
-4.8178453779386654
30
0
11
-8.4565034236758851
21
-2.8904890052207799
31
0
0
LINE
5
110
100
AcDbEntity
8
0
100
AcDbLine
10
-8.4565034236758851
20
-2.8904890052207799
30
0
11
0
21
0
31
0
0
LINE
5
111
100
AcDbEntity
8
0
100
AcDbLine
10
0
20
0
30
0
11
2.6593217115457
21
-6.2263613565783746
31
0
0
LINE
5
112
100
AcDbEntity
8
0
100
AcDbLine
10
2.6593217115457
20
-6.2263613565783746
30
0
11
-2.0495276817267341
21
-9.1821326207537126
31
0
0
LINE
5
113
100
AcDbEntity
8
0
100
AcDbLine
10
-2.0495276817267341
20
-9.1821326207537126
30
0
11
-2.8999999351799488
21
-8.2999998144805431
31
0
0
LINE
5
114
100
AcDbEntity
8
0
100
AcDbLine
10
-2.8999999351799488
20
-8.2999998144805431
30
0
11
-6.2305154614496043
21
-11.806562179454216
31
0
0
LINE
5
115
100
AcDbEntity
8
0
100
AcDbLine
10
-6.2305154614496043
20
-11.806562179454216
30
0
11
-4.5652576983147766
21
-82.682311996510393
31
0
0
LINE
5
116
100
AcDbEntity
8
0
100
AcDbLine
10
-4.5652576983147766
20
-82.682311996510393
30
0
11
5.0172487102067365
21
-83.22815938478422
31
0
0
LINE
5
117
100
AcDbEntity
8
0
100
AcDbLine
10
26.000000387430191
20
-73.000001087784767
30
0
11
26.615880629816768
21
-61.776664700755845
31
0
0
LINE
5
118
100
AcDbEntity
8
0
100
AcDbLine
10
26.615880629816768
20
-61.776664700755845
30
0
11
40.000000596046448
21
-55.000000819563866
31
0
0
LINE
5
119
100
AcDbEntity
8
0
100
AcDbLine
10
40.000000596046448
20
-55.000000819563866
30
0
11
41.419437267432201
21
-47.280600337512233
31
0
0
LINE
5
120
100
AcDbEntity
8
0
100
AcDbLine
10
41.419437267432201
20
-47.280600337512233
30
0
11
154.00000229477882
21
10.000000149011612
31
0
0
LINE
5
121
100
AcDbEntity
8
0
100
AcDbLine
10
-152.0000022649765
20
-308.00000458955765
30
0
11
-2.0000000298023224
21
-211.00000314414501
31
0
0
LINE
5
122
100
AcDbEntity
8
0
100
AcDbLine
10
-2.0000000298023224
20
-211.00000314414501
30
0
11
-2.0000000298023224
21
-206.00000306963921
31
0
0
LINE
5
123
100
AcDbEntity
8
0
100
AcDbLine
10
-2.0000000298023224
20
-206.00000306963921
30
0
11
3.0000000447034836
21
-206.00000306963921
31
0
0
LINE
5
124
100
AcDbEntity
8
0
100
AcDbLine
10
3.0000000447034836
20
-206.00000306963921
30
0
11
3.0000000447034836
21
-195.00000290572643
31
0
0
LINE
5
125
100
AcDbEntity
8
0
100
AcDbLine
10
3.0000000447034836
20
-195.00000290572643
30
0
11
7.0000001043081284
21
-187.00000278651714
31
0
0
LINE
5
126
100
AcDbEntity
8
0
100
AcDbLine
10
7.0000001043081284
20
-187.00000278651714
30
0
11
28.539405915137756
21
-171.85826043375698
31
0
0
LINE
5
127
100
AcDbEntity
8
0
100
AcDbLine
10
28.539405915137756
20
-171.85826043375698
30
0
11
25.469083541927041
21
-167.49067062632639
31
0
0
LINE
5
128
100
AcDbEntity
8
0
100
AcDbLine
10
25.469083541927041
20
-167.49067062632639
30
0
11
27.818414059349962
21
-166.67974492112597
31
0
0
LINE
5
129
100
AcDbEntity
8
0
100
AcDbLine
10
27.818414059349962
20
-166.67974492112597
30
0
11
26.643748800638502
21
-163.27662559422629
31
0
0
LINE
5
130
100
AcDbEntity
8
0
100
AcDbLine
10
26.643748800638502
20
-163.27662559422629
30
0
11
24.578910842996741
21
-163.98935211972255
31
0
0
LINE
5
131
100
AcDbEntity
8
0
100
AcDbLine
10
24.578910842996741
20
-163.98935211972255
30
0
11
10.000000149011612
21
-91.000001356005669
31
0
0
LINE
5
132
100
AcDbEntity
8
0
100
AcDbLine
10
10.000000149011612
20
-91.000001356005669
30
0
11
5.0172487102067365
21
-83.22815938478422
31
0
0
LINE
5
133
100
AcDbEntity
8
0
100
AcDbLine
10
26.000000387430191
20
-73.000001087784767
30
0
11
27.435956152038781
21
-87.11408037039493
31
0
0
LINE
5
134
100
AcDbEntity
8
0
100
AcDbLine
10
27.435956152038781
20
-87.11408037039493
30
0
11
40.70153880176494
21
-153.52825118395319
31
0
0
LINE
5
135
100
AcDbEntity
8
0
100
AcDbLine
10
40.70153880176494
20
-153.52825118395319
30
0
11
42.890352143956207
21
-160.52366131891714
31
0
0
LINE
5
136
100
AcDbEntity
8
0
100
AcDbLine
10
42.890352143956207
20
-160.52366131891714
30
0
11
57.540723488101989
21
-160.52366131891714
31
0
0
LINE
5
137
100
AcDbEntity
8
0
100
AcDbLine
10
57.540723488101989
20
-160.52366131891714
30
0
11
103.0000015348196
21
-143.00000213086605
31
0
0
LINE
5
138
100
AcDbEntity
8
0
100
AcDbLine
10
103.0000015348196
20
-143.00000213086605
30
0
11
106.00000157952309
21
-149.00000222027302
31
0
0
LINE
5
139
100
AcDbEntity
8
0
100
AcDbLine
10
106.00000157952309
20
-149.00000222027302
30
0
11
163.00000242888927
21
-133.00000198185444
31
0
0
LINE
5
140
100
AcDbEntity
8
0
100
AcDbLine
10
163.00000242888927
20
-133.00000198185444
30
0
11
260
21
-120
31
0
0
LINE
5
141
100
AcDbEntity
8
0
100
AcDbLine
10
260
20
-120
30
0
11
388.70946349559455
21
-107.47746480215906
31
0
0
LINE
5
142
100
AcDbEntity
8
0
100
AcDbLine
10
388.70946349559455
20
-107.47746480215906
30
0
11
401.66267295688903
21
-123.43036487554279
31
0
0
LINE
5
143
100
AcDbEntity
8
0
100
AcDbLine
10
401.66267295688903
20
-123.43036487554279
30
0
11
401.66267295688903
21
-180
31
0
0
LINE
5
144
100
AcDbEntity
8
0
100
AcDbLine
10
401.66267295688903
20
-180
30
0
11
311.00000463426113
21
-186.00000277161598
31
0
0
LINE
5
145
100
AcDbEntity
8
0
100
AcDbLine
10
311.00000463426113
20
-186.00000277161598
30
0
11
183.0000027269125
21
-197.00000293552876
31
0
0
LINE
5
146
100
AcDbEntity
8
0
100
AcDbLine
10
183.0000027269125
20
-197.00000293552876
30
0
11
132.00000196695328
21
-216.00000321865082
31
0
0
LINE
5
147
100
AcDbEntity
8
0
100
AcDbLine
10
132.00000196695328
20
-216.00000321865082
30
0
11
135.45944682499305
21
-225.28588152181015
31
0
0
LINE
5
148
100
AcDbEntity
8
0
100
AcDbLine
10
135.45944682499305
20
-225.28588152181015
30
0
11
123.92838204097329
21
-229.58176840213125
31
0
0
LINE
5
149
100
AcDbEntity
8
0
100
AcDbLine
10
123.92838204097329
20
-229.58176840213125
30
0
11
120.5982311663436
21
-220.64294237023049
31
0
0
LINE
5
150
100
AcDbEntity
8
0
100
AcDbLine
10
120.5982311663436
20
-220.64294237023049
30
0
11
80.000001192092896
21
-238.00000354647636
31
0
0
LINE
5
151
100
AcDbEntity
8
0
100
AcDbLine
10
80.000001192092896
20
-238.00000354647636
30
0
11
81.822344885181352
21
-249.831436476173
31
0
0
LINE
5
152
100
AcDbEntity
8
0
100
AcDbLine
10
81.822344885181352
20
-249.831436476173
30
0
11
55
21
-265
31
0
0
LINE
5
153
100
AcDbEntity
8
0
100
AcDbLine
10
55
20
-265
30
0
11
59.53109161608856
21
-294.41778038763198
31
0
0
LINE
5
154
100
AcDbEntity
8
0
100
AcDbLine
10
59.53109161608856
20
-294.41778038763198
30
0
11
31.000000461935997
21
-298.00000444054604
31
0
0
LINE
5
155
100
AcDbEntity
8
0
100
AcDbLine
10
31.000000461935997
20
-298.00000444054604
30
0
11
21.000000312924385
21
-277.00000412762165
31
0
0
LINE
5
156
100
AcDbEntity
8
0
100
AcDbLine
10
21.000000312924385
20
-277.00000412762165
30
0
11
-34.996437898507899
21
-308.66709116845033
31
0
0
LINE
5
157
100
AcDbEntity
8
0
100
AcDbLine
10
420
20
-185
30
0
11
420
21
-125
31
0
0
LINE
5
158
100
AcDbEntity
8
0
100
AcDbLine
10
420
20
-125
30
0
11
435
21
-120
31
0
0
LINE
5
159
100
AcDbEntity
8
0
100
AcDbLine
10
435
20
-120
30
0
11
550
21
-120
31
0
0
LINE
5
160
100
AcDbEntity
8
0
100
AcDbLine
10
420
20
-185
30
0
11
440
21
-190
31
0
0
LINE
5
161
100
AcDbEntity
8
0
100
AcDbLine
10
440
20
-190
30
0
11
550
21
-190
31
0
0
LINE
5
162
100
AcDbEntity
8
0
100
AcDbLine
10
-34.996437898507899
20
-308.66709116845033
30
0
11
-140.72832133358622
21
-368.46055058612092
31
0
0
ENDSEC
0
SECTION
2
OBJECTS
0
DICTIONARY
5
C
100
AcDbDictionary
3
ACAD_GROUP
350
D
3
ACAD_MLINESTYLE
350
17
0
DICTIONARY
5
D
100
AcDbDictionary
0
DICTIONARY
5
1A
330
C
100
AcDbDictionary
0
DICTIONARY
5
17
100
AcDbDictionary
0
ENDSEC
0
EOF
